<svg xmlns="http://www.w3.org/2000/svg" xmlns:xlink="http://www.w3.org/1999/xlink" viewBox="0 0 184 184"><defs><style>.cls-1{fill:url(#Degradado_sin_nombre_3);}</style><linearGradient id="Degradado_sin_nombre_3" y1="92" x2="184" y2="92" gradientUnits="userSpaceOnUse"><stop offset="0" stop-color="#55c0d2"/><stop offset="0.52" stop-color="#43bfe4"/><stop offset="1" stop-color="#5aa8de"/></linearGradient></defs><g id="Capa_2" data-name="Capa 2"><g id="Capa_1-2" data-name="Capa 1"><path class="cls-1" d="M92,0a92,92,0,1,0,92,92A92,92,0,0,0,92,0Zm59.44,140.34c-2-4.49-6.05-7.6-14.34-9.52-17.58-4-33.95-7.61-26-22.57C135.19,62.69,117.47,38.33,92,38.33c-26,0-43.27,25.3-19.08,69.92,8.17,15-8.8,18.6-26,22.57-8.31,1.92-12.32,5.05-14.31,9.56a76.67,76.67,0,1,1,118.85,0Z"/></g></g></svg>