<svg xmlns="http://www.w3.org/2000/svg" xmlns:xlink="http://www.w3.org/1999/xlink" viewBox="0 0 192 209.45"><defs><style>.cls-1{fill:url(#Degradado_sin_nombre_3);}</style><linearGradient id="Degradado_sin_nombre_3" y1="104.73" x2="192" y2="104.73" gradientUnits="userSpaceOnUse"><stop offset="0" stop-color="#55c0d2"/><stop offset="0.52" stop-color="#43bfe4"/><stop offset="1" stop-color="#5aa8de"/></linearGradient></defs><g id="Capa_2" data-name="Capa 2"><g id="Capa_1-2" data-name="Capa 1"><path class="cls-1" d="M96,8.73a95.78,95.78,0,0,1,92.29,122.18H170a77.6,77.6,0,0,0,4.6-26.18A78.64,78.64,0,0,0,96,26.18,77.64,77.64,0,0,0,55.38,37.65L71.59,61.09h-61L29.33,0,45.48,23.33A95.08,95.08,0,0,1,96,8.73Zm40.55,163.13A77.73,77.73,0,0,1,96,183.27a78.64,78.64,0,0,1-78.55-78.54A77.84,77.84,0,0,1,22,78.55H3.71A95.72,95.72,0,0,0,146.44,186.18l16.18,23.27,18.78-61h-61ZM113.45,96V78.55a17.45,17.45,0,1,0-34.9,0V96H69.82v43.64h52.36V96ZM87.27,78.55a8.73,8.73,0,0,1,17.46,0V96H87.27Z"/></g></g></svg>