<svg xmlns="http://www.w3.org/2000/svg" xmlns:xlink="http://www.w3.org/1999/xlink" viewBox="0 0 60.93 61.99"><defs><style>.cls-1{fill:url(#Degradado_sin_nombre_2);}.cls-2{fill:url(#Degradado_sin_nombre_2-2);}.cls-3{fill:url(#Degradado_sin_nombre_2-3);}</style><linearGradient id="Degradado_sin_nombre_2" y1="31.9" x2="58.8" y2="31.9" gradientUnits="userSpaceOnUse"><stop offset="0" stop-color="#16d9e3"/><stop offset="0.52" stop-color="#30c7ec"/><stop offset="1" stop-color="#46aef7"/></linearGradient><linearGradient id="Degradado_sin_nombre_2-2" x1="39.39" y1="54.7" x2="60.93" y2="54.7" xlink:href="#Degradado_sin_nombre_2"/><linearGradient id="Degradado_sin_nombre_2-3" x1="5.88" y1="5.33" x2="16.79" y2="5.33" xlink:href="#Degradado_sin_nombre_2"/></defs><g id="Capa_2" data-name="Capa 2"><g id="Capa_1-2" data-name="Capa 1"><path class="cls-1" d="M15.61,41.25c.73-.78,1.39-1.51,2.07-2.23.51-.54.95-.61,1.4-.22a1,1,0,0,1,0,1.51c-.65.72-1.31,1.43-2,2.19l2.23,2,4-4.24a2.22,2.22,0,0,1-.46-.26,21.42,21.42,0,0,1-7.67-17.71,18.65,18.65,0,0,1,1.25-6c.12-.31.21-.55-.2-.78a9.17,9.17,0,0,0-9.54-.14A8.7,8.7,0,0,0,2,23.47a2.39,2.39,0,0,0,0,.31l.7,0h8.35c.79,0,1.17.27,1.23.85a.91.91,0,0,1-1,1.08c-.86,0-1.72,0-2.59,0H1.28c-1,0-1.23-.28-1.27-1.27a11.59,11.59,0,0,1,2.15-7.7,11.5,11.5,0,0,1,14.65-3.15l.55.3.36-.63A21.44,21.44,0,0,1,34.53,2a21.8,21.8,0,0,1,24,18A21.11,21.11,0,0,1,55.61,34.8a1.46,1.46,0,0,1-.92.66c-.85.11-1.22-.73-.82-1.57A36.33,36.33,0,0,0,56.05,29,19.74,19.74,0,0,0,40.24,4,20,20,0,0,0,17.35,20.2a20,20,0,0,0,26.31,22,.83.83,0,0,0,.66-.79c.27-2.17,1.31-3.43,3.65-4.58a4.13,4.13,0,0,0-3.16-3.33,8.82,8.82,0,0,0-2.24,0c-.19,0-.42.27-.55.46-1.21,1.8-2.39,3.61-3.59,5.42-.66,1-1.27,1-2,.07-1.32-1.67-2.64-3.33-3.94-5a1,1,0,0,0-.91-.44,4.86,4.86,0,0,0-4.3,2,1,1,0,1,1-1.55-1.16A6.16,6.16,0,0,1,30.56,32c1.64-.13,1.58-.13,2.18-1.62a2,2,0,0,0-.54-2.66,5.67,5.67,0,0,1-1.79-4.22,5.73,5.73,0,0,0-.62-2.24A29.33,29.33,0,0,1,28,16.75c-.86-3.11,2.62-6.62,5.73-5.81a5.59,5.59,0,0,1,1.89,1.16,1,1,0,0,0,.88.29,9.36,9.36,0,0,1,5.58.52c2.46,1.09,3.26,2.85,3.1,5.51a15.12,15.12,0,0,1-.79,3,2,2,0,0,0-.14.67A7.16,7.16,0,0,1,40.9,29s0,.07-.1.15c.33.68.65,1.4,1,2.09a.77.77,0,0,0,.58.22,17.94,17.94,0,0,1,2.32,0,6.16,6.16,0,0,1,5.13,4.5.75.75,0,0,0,.71.63A5.29,5.29,0,0,1,51.18,47a5.37,5.37,0,0,1-6.29-2.7c-.18-.35-.32-.46-.73-.32a21.83,21.83,0,0,1-19.08-2.29l-.17-.1a1,1,0,0,0-.18,0l-3.94,4.29c.36.4.71.77,1,1.15a1,1,0,0,1,0,1.52C18.23,52.32,14.65,56.18,11,60a6.11,6.11,0,0,1-8.55.42,6,6,0,0,1-.25-8.51Q7.58,46.16,13,40.42c.62-.67,1-.68,1.69-.05ZM10.74,45.6C8.26,48.29,5.8,50.89,3.4,53.55A3.58,3.58,0,0,0,2.66,57a3.92,3.92,0,0,0,3,2.94,3.89,3.89,0,0,0,4-1.2c1.38-1.47,2.73-3,4.1-4.45l3-3.25ZM37.36,19.39v.11l-3.29.16c-.18,0-.44.06-.51.18-.77,1.23-1.67,2.37-1.25,4.05A5.45,5.45,0,0,0,37.13,28a4.93,4.93,0,0,0,5-3.6,4.71,4.71,0,0,0,0-3.08,7.76,7.76,0,0,0-.94-1.53,1,1,0,0,0-.65-.35C39.47,19.37,38.42,19.39,37.36,19.39Zm5.71-.19.14-.12c0-.37.08-.73.09-1.09,0-2-.69-3-2.68-3.59a8.62,8.62,0,0,0-4.34,0c-1.09.24-1.21.2-1.81-.7a1.87,1.87,0,0,0-1.75-1,3.37,3.37,0,0,0-2.9,3,9.81,9.81,0,0,0,1.4,4.23c.18-.34.35-.59.47-.86a2.12,2.12,0,0,1,2.19-1.35c2,0,3.92,0,5.88-.16C41.2,17.46,42.51,17.45,43.07,19.2ZM53.22,41.73a3.45,3.45,0,0,0-3.5-3.39,3.39,3.39,0,1,0,0,6.78A3.45,3.45,0,0,0,53.22,41.73ZM37.35,37.28a31.88,31.88,0,0,1,2.09-3.05,2.45,2.45,0,0,0,.21-3.34c-.69-1.09-.59-1.13-1.85-1.08a10.79,10.79,0,0,1-1.61-.09c-.39,0-.78-.16-1.19-.24-.33,1-.67,1.94-1,2.9a1,1,0,0,0,.1.77C35.17,34.52,36.24,35.86,37.35,37.28ZM18,49.67l1.94-2.12L14,42.12l-2,2.13Z"/><path class="cls-2" d="M50.22,61H40.78c-1.06,0-1.36-.32-1.38-1.38A10.41,10.41,0,0,1,44,50.16c5.84-4,14.31-.87,16.42,6a17.36,17.36,0,0,1,.51,3.6c.08.88-.29,1.19-1.2,1.19ZM59,59c0-.12,0-.2,0-.29a9.25,9.25,0,0,0-9.27-8.37c-5.4,0-8.07,4.13-8.26,8.66Z"/><path class="cls-3" d="M5.88,5.34A5.42,5.42,0,0,1,11.31,0a5.37,5.37,0,0,1,5.48,5.33,5.39,5.39,0,0,1-5.49,5.33A5.37,5.37,0,0,1,5.88,5.34Zm5.31,3.38a3.51,3.51,0,0,0,3.66-3.38,3.51,3.51,0,0,0-3.51-3.41A3.4,3.4,0,0,0,7.84,5.3,3.33,3.33,0,0,0,11.19,8.72Z"/></g></g></svg>