<svg xmlns="http://www.w3.org/2000/svg" xmlns:xlink="http://www.w3.org/1999/xlink" viewBox="0 0 383.48 383.49"><defs><style>.cls-1{fill:url(#Degradado_sin_nombre_2);}.cls-2{fill:#fff;}</style><linearGradient id="Degradado_sin_nombre_2" y1="191.75" x2="383.48" y2="191.75" gradientUnits="userSpaceOnUse"><stop offset="0" stop-color="#16d9e3"/><stop offset="0.52" stop-color="#30c7ec"/><stop offset="1" stop-color="#46aef7"/></linearGradient></defs><g id="Capa_2" data-name="Capa 2"><g id="Capa_1-2" data-name="Capa 1"><path class="cls-1" d="M321,383.49H62.11c-13.48-1-25.18-6.35-35.57-14.7-12.48-10-21.18-22.64-25.26-38.27-.78-3-.42-6.15-1.28-9.13V62.48C.8,49.5,5.65,38,13.59,27.93,23.89,14.82,36.91,5.55,53.27,1.39A55.54,55.54,0,0,1,67,.05Q191.56,0,316.13,0c17.52,0,32.07,7,44.75,18.62A71.5,71.5,0,0,1,382,53.28a53.44,53.44,0,0,1,1.46,14.07q.09,124.58,0,249.15c0,17.49-6.9,32.11-18.62,44.75a74.83,74.83,0,0,1-22,16.49A59.8,59.8,0,0,1,321,383.49Z"/><path class="cls-2" d="M193.28,288.48H85.71c-8,0-10.22-2.2-10.23-10.16,0-10.85-.09-21.69,0-32.54C75.79,218,96.36,197,124.16,196.71c28.86-.33,57.73-.12,86.6,0a43.32,43.32,0,0,1,15,2.64c.9.33,1.95.68,1.76,1.87s-1.37,1.14-2.29,1.13c-12.64-.21-21,6.14-26.37,17.12a86.73,86.73,0,0,1-4.54,7.87c-5.89,9.35-6.23,18.82-.69,28.43.72,1.26,1.47,2.22.45,3.84-5.64,9-5.87,18.25-.75,27.61C193.45,287.42,193.31,287.8,193.28,288.48Z"/><path class="cls-2" d="M116.42,125.28a51,51,0,0,1,51-51.08c28.06,0,50.76,23,50.74,51.38a50.87,50.87,0,1,1-101.74-.3Z"/><path class="cls-2" d="M302.08,266.66c-6.75-4.76-6.9-12.36-.34-17.19.77-.57,1.6-1.06,2.33-1.68,4.79-4,5-5,2-10.47-1.36-2.52-2.86-5-4.26-7.47-4.27-7.67-5.9-8.21-14-4.61-7.27,3.23-13,.36-14.48-7.3-.3-1.55-.48-3.13-.64-4.71-.43-4-2.25-6.49-6.74-6.3-3.34.15-6.69,0-10,0-8.94,0-10.23,1.21-10.95,10.34-.57,7.09-7,11-13.59,8.33-1.62-.67-3.21-1.44-4.87-2-3.52-1.1-6.46-.86-8.33,3.09-1.64,3.43-3.76,6.64-5.74,9.91-2.9,4.77-3.17,8.81,2.35,11.54a20.16,20.16,0,0,1,4.18,3.16c3.23,2.9,3.16,11.37-.4,13.6-12.62,7.88-8.36,10.25-3.35,18.93.24.42.54.79.78,1.21,5.42,9.29,5.41,9.25,15.45,5.18,1.83-.74,3.78-2.59,5.76-1.26,3.9,2.63,8.15,4.43,8.1,11-.05,8.19,2.09,9.3,10.35,9.31,3,0,6.06,0,9.09,0,5.92-.07,7.41-1.54,8-7.6a61.06,61.06,0,0,1,1-6.58c.61-3,8.09-6.74,11-5.66,3.41,1.26,6.61,3.14,9.7,3.61a5.05,5.05,0,0,0,5.09-3c1.78-3.2,3.57-6.4,5.45-9.53C309.56,272.94,309.34,271.78,302.08,266.66Zm-42.87,11.92c-12.49-.37-21.08-10.73-20.1-20.41-1.38-11.7,10.95-20.87,19.8-20.65,11.65.28,20.48,8.91,20.48,20.59C279.39,269.33,270.17,278.91,259.21,278.58Z"/></g></g></svg>